<?xml version="1.0" encoding="utf-8"?>
<!-- Generator: Adobe Illustrator 24.0.2, SVG Export Plug-In . SVG Version: 6.00 Build 0)  -->
<svg version="1.1" id="Layer_1" xmlns="http://www.w3.org/2000/svg" xmlns:xlink="http://www.w3.org/1999/xlink" x="0px" y="0px"
	 viewBox="0 0 512 512" style="enable-background:new 0 0 512 512;" xml:space="preserve">
<style type="text/css">
	.st0{fill:#ED7D04;}
	.st1{fill:#282828;}
</style>
<g>
	<g>
		<path class="st0" d="M47.3474,190.9037c2.8176,2.8563,26.8016,3.2195,26.8016,3.2195s25.5079,16.3983,34.8007,3.3036
			c0.7889,9.1969,7.3151,14.424,5.1877,31.0411c-0.6422,5.1815-1.4945,20.9919,0.2071,29.7235l82.2487-29.1569
			c-2.9914-1.8509-4.6961-4.8394-8.9325-8.3501c-31.9623-19.8372-20.7252-49.1165-39.1306-73.4452
			c-10.244-13.5323-35.0287-18.3845-46.0138-14.1536c-19.0684,7.3453-14.1959,15.3027-28.3672,27.0413
			c-14.1658,11.744-27.7043,9.7695-31.3108,14.2887C39.2222,178.9311,41.0947,188.8304,47.3474,190.9037z"/>
	</g>
	<g>
		<path class="st0" d="M245.8534,233.9587c-32.8145,2.2596-70.4026-23.9022-91.2207-18.7772
			c-6.598-9.5779-42.7217,30.2004-40.7055,40.8223c5.9983,31.3951-8.4853,40.7149,5.2903,57.254
			c17.5679,21.1331,42.2297,31.7882,62.6187,30.6778c34.8608-1.8725,45.5663-37.4352,105.3502-31.8602
			c28.4485,2.6289,84.1445-17.8051,56.6984-63.9393C316.3459,201.7568,270.1219,232.3056,245.8534,233.9587z"/>
	</g>
	<g>
		<path class="st0" d="M325.032,307.4217c0,0,28.0134,22.4532,46.2749,25.0157c25.1657,3.5347,49.7463-14.1473,61.7847-18.2137
			c3.2705-1.1098,29.2829,14.5081,44.6816,35.0742c2.7395,3.6484,4.0417,11.0417,8.5067,10.6668
			c-1.4884,5.5,4.6421,16.7161,8.5516,18.9425c2.6197,1.4706,11.2764-9.3856,10.6397-11.7594
			c-0.6569-2.3881-16.9773-10.1119-15.3414-13.1691c2.9103-5.401-7.6815-11.3514-10.0252-14.0128
			c-16.512-19.2755-23.3565-38.4792-31.2961-43.9914c-12.9411-8.9744-35.5867,9.2479-49.3051-0.2372
			c-13.71-9.5115-32.4785-65.8233-78.1616-67.2514C283.0906,227.2616,325.032,307.4217,325.032,307.4217z"/>
	</g>
	<g>
		<path class="st0" d="M276.4379,304.3374c0,0,43.1845,37.9212,61.0381,40.9937c24.5745,4.2187,47.8886-11.9843,59.471-15.4834
			c3.1414-0.9598,28.9554,14.9131,44.6096,35.1848c2.7721,3.5797,4.2845,10.7301,8.6204,10.5231
			c-1.2843,5.2301,5.0587,16.1999,8.9265,18.4656c2.6049,1.5092,10.6644-8.6475,9.9533-10.9464
			c-0.7085-2.2983-16.8334-10.2526-15.3358-13.1389c2.6523-5.0925-7.8529-11.1566-10.2053-13.8027
			c-16.6983-19.0628-23.9772-37.7473-31.8842-43.2951c-12.8784-9.0352-34.3023,7.7294-47.9612-1.8608
			c-13.649-9.5748-33.7321-64.2777-78.2095-67.1888C248.2267,241.3789,276.4379,304.3374,276.4379,304.3374z"/>
	</g>
	<g>
		<path class="st0" d="M110.2905,297.394c3.8197,26.4199-52.9001,26.5821-51.6336,49.9411
			c0.1887,3.6097-11.3992,29.6486-27.6053,51.2409c-2.8778,3.8315-9.9527,7.3244-8.2997,11.7145
			c-5.959,0.102-15.4711,9.5956-16.563,14.1891c-0.7111,3.0787,12.7972,8.6481,14.9818,7.2797
			c2.2142-1.3563,5.2148-20.0948,8.8036-19.3536c6.3104,1.3563,9.1576-11.0871,11.1952-14.2346
			c14.5708-22.3364,31.95-34.8818,35.1664-44.5285c5.2424-15.7021,49.7678,2.9737,71.9181-24.7545
			C159.1641,315.199,107.5091,278.1633,110.2905,297.394z"/>
	</g>
	<g>
		<path class="st0" d="M115.4488,265.4704c-0.2372,23.0444-48.6784,15.6991-50.6829,35.7969
			c-0.3238,3.1088-13.6551,23.8008-30.3534,40.0879c-2.9589,2.8895-9.4549,4.9358-8.6389,8.8932
			c-5.0919-0.6986-14.4719,6.1483-16.005,9.9294c-1.0294,2.5386,9.767,9.0555,11.8104,8.1915
			c2.0826-0.864,7.1204-16.4579,10.0879-15.342c5.2,1.9891,9.2804-8.2666,11.4294-10.673
			c15.4016-17.1333,31.9021-25.5467,35.9284-33.3571c6.5532-12.7137,42.0803,9.1336,64.6564-11.6033
			C154.8128,287.1408,115.6256,248.6978,115.4488,265.4704z"/>
	</g>
	<g>
		<path class="st0" d="M123.1658,136.908c0,0,8.6511,6.0917,18.9725,4.156c8.8459-1.6591,20.2809-9.8298,23.603-13.8807
			c8.8632-10.7596,23.3111-28.6795,23.3111-28.6795s-20.6619-4.0386-30.2428,1.9025
			C149.1961,106.3838,123.1658,136.908,123.1658,136.908z"/>
	</g>
	<g>
		<path class="st0" d="M109.0037,141.4512c0,0,6.016,1.4073,10.2796-4.5431c5.1282-7.1708,8.6659-22.4827,8.6806-30.6355
			c0.024-16.461-14.4779-27.9802-14.4779-27.9802s-6.496,30.9115-10.9606,39.2622
			C95.024,131.6091,109.0037,141.4512,109.0037,141.4512z"/>
	</g>
	<g>
		<path class="st1" d="M118.4254,154.8789c0,0-6.5563,9.3075-13.4849,7.1653c-2.4636-0.7619-5.3468-2.7572-5.3468-2.7572
			s5.911-0.4776,8.5755-0.7233C111.1575,158.3203,118.4254,154.8789,118.4254,154.8789z"/>
	</g>
	<g>
		<path class="st0" d="M306.8521,226.8714c0,0,2.7574,7.9335,13.0733,7.5647c10.3429-0.36,28.4122,0.0836,31.3557-16.0683
			c1.8725-10.2796,0-21.3882,0-21.3882s-12.1342,3.9821-20.974,15.6905c-8.8453,11.7108-25.0606,10.0098-25.0606,10.0098
			L306.8521,226.8714z"/>
	</g>
</g>
</svg>
